<?xml version="1.0" encoding="utf-8"?>
<!-- Generator: Adobe Illustrator 19.1.0, SVG Export Plug-In . SVG Version: 6.00 Build 0)  -->
<svg version="1.1" id="Camada_1" xmlns="http://www.w3.org/2000/svg" xmlns:xlink="http://www.w3.org/1999/xlink" x="0px" y="0px"
	 viewBox="0 0 130.4 48.2" style="enable-background:new 0 0 130.4 48.2;" xml:space="preserve">
<style type="text/css">
	.st0{fill:#555454;}
</style>
<g>
	<path class="st0" d="M15.6,40c-4.3,0-7.7-3.5-7.7-7.7H2.2c0,7.4,6,13.4,13.4,13.4c7.4,0,13.4-6,13.4-13.4h-5.7
		C23.4,36.5,19.9,40,15.6,40"/>
	<polygon class="st0" points="117.1,3.4 111.8,21 106.1,3.3 101,3.3 95.3,21 90.2,3.4 84.1,3.4 92.5,29.3 97.7,29.3 103.5,11.7 
		109.3,29.3 114.5,29.3 123,3.4 	"/>
	<path class="st0" d="M123.9,21.1c-2.4,0-4.3,1.9-4.3,4.3c0,2.4,1.9,4.3,4.3,4.3c2.4,0,4.3-1.9,4.3-4.3
		C128.2,23,126.2,21.1,123.9,21.1"/>
	<path class="st0" d="M67.8,2.8c-7.4,0-13.4,6-13.4,13.4c0,7.4,6,13.4,13.4,13.4s13.4-6,13.4-13.4C81.2,8.8,75.2,2.8,67.8,2.8
		 M67.8,24c-4.3,0-7.7-3.5-7.7-7.7c0-4.3,3.5-7.7,7.7-7.7s7.7,3.5,7.7,7.7C75.5,20.5,72.1,24,67.8,24"/>
	<path class="st0" d="M42.2,8.8V3h-5.9v25.6h5.9v-9.7c0-6.8,3.6-10.1,8.7-10.1h0.3V2.6C46.8,2.4,43.8,5,42.2,8.8"/>
	<path class="st0" d="M23.4,5.4C21.2,3.9,18.5,3,15.6,3C8.2,3,2.2,9,2.2,16.4c0,7.4,6,13.4,13.4,13.4c7.4,0,13.4-6,13.4-13.4
		c0-0.3,0-0.5,0-0.8h0v-13h-5.7V5.4z M15.6,24.1c-4.3,0-7.7-3.5-7.7-7.7c0-4.3,3.5-7.7,7.7-7.7s7.7,3.5,7.7,7.7
		C23.4,20.7,19.9,24.1,15.6,24.1"/>
</g>
</svg>
