<?xml version="1.0" encoding="utf-8"?>
<!-- Generator: Adobe Illustrator 19.1.0, SVG Export Plug-In . SVG Version: 6.00 Build 0)  -->
<svg version="1.1" id="Camada_1" xmlns="http://www.w3.org/2000/svg" xmlns:xlink="http://www.w3.org/1999/xlink" x="0px" y="0px"
	 viewBox="0 0 155.9 34" style="enable-background:new 0 0 155.9 34;" xml:space="preserve">
<style type="text/css">
	.st0{fill:#D4B12E;}
</style>
<g>
	<path class="st0" d="M79.9,2.9v28.2h63.6c3.7,0,6.7-3,6.7-6.7V9.6c0-3.7-3-6.7-6.7-6.7H79.9z"/>
	<path d="M70.2,2.9H53.3H12.4c-3.7,0-6.7,3-6.7,6.7v14.9c0,3.7,3,6.7,6.7,6.7h65.7V2.9H70.2z"/>
	<path class="st0" d="M45.7,22.6c-0.4-0.2-0.7-0.6-0.8-1c-0.1-0.5-0.2-1-0.2-1.4c0-0.4,0-0.8,0-1.2c0-0.7,0-1.5,0.2-2.2
		c0-0.1,0.1-0.3,0.1-0.4c0.4-1,1-1.2,1.9-1.2c1.4,0.1,2,1,2.1,1.9c0.2,1.3,0.3,2.6,0,3.9c-0.1,0.3-0.2,0.5-0.3,0.8
		c-0.4,0.7-1.1,1.2-1.9,1.2C46.4,22.9,46,22.8,45.7,22.6 M47.7,9.9c0,0,0,0.1,0,0.2h1.3v6.4c-0.1-0.1-0.1-0.2-0.1-0.3
		c-0.3-0.7-0.9-1.1-1.6-1.3c-0.8-0.2-1.5-0.1-2.2,0.2c-1.3,0.6-2.4,2.2-2.3,4c0.1,1.9,1.6,3.6,3.4,3.8c1.2,0.2,2.1-0.2,2.7-1.4
		c0-0.1,0.1-0.2,0.2-0.3c0.1,0.5,0,1,0,1.5H52c0-0.1,0-0.1,0-0.2h-1.4V9.9c-0.3,0-0.8-0.1-1.4-0.1C48.5,9.9,47.8,9.9,47.7,9.9"/>
	<path class="st0" d="M18.5,9.9c-0.9,0.2-1.7,0.6-2.4,1.2c-2.1,1.8-2.9,4-2.4,6.6c0.3,1.4,1,2.6,2,3.6c0.6,0.6,1.3,1.1,2.1,1.4
		c1.6,0.5,3.1,0.5,4.6-0.3c0.3-0.1,0.5-0.3,0.8-0.4c0.4-0.1,0.8-0.2,1.1,0.2c0,0,0.1,0.1,0.3,0.1c0-0.5,0-0.9,0-1.4
		c0-0.5,0-0.9,0-1.4c0-0.4,0-0.9,0-1.4h1.4c0-0.1,0-0.1,0-0.2c-0.6-0.1-5.3-0.1-5.4,0c0,0,0,0.1,0,0.2H23c0,0.7,0.1,1.4,0,2
		c-0.2,1.3-0.9,2.1-2.1,2.4c-0.5,0.2-1.1,0.1-1.6,0.1c-1.1-0.1-1.9-0.6-2.5-1.5c-0.5-0.8-0.7-1.7-0.9-2.7c-0.2-1.2-0.2-2.4-0.1-3.7
		c0.1-0.8,0.2-1.6,0.5-2.4c0.4-1,0.9-1.8,1.9-2.2c0.7-0.3,1.5-0.4,2.3-0.3c1.3,0.1,2.3,0.7,2.9,1.9c0.2,0.4,0.3,0.9,0.5,1.4
		c0,0.1,0,0.3,0.3,0.4c0-1.2,0-2.4,0-3.7c-0.2,0.1-0.3,0.1-0.4,0.2c-0.2,0.2-0.4,0.2-0.7,0.2c-0.4,0-0.7-0.1-1-0.3
		c-0.6-0.3-1.3-0.4-2-0.4C19.5,9.7,19,9.8,18.5,9.9"/>
	<path class="st0" d="M68,14.9c-1.3,0-2.2,0.6-2.8,1.7C65.1,16.7,65,16.9,65,17c0,0,0,0-0.1,0v-1.9h-2.8v0.2h1.3v7.2H62
		c0,0.1,0,0.1,0,0.2h4.3c0-0.1,0-0.1,0-0.2H65c0-0.1,0-0.1,0-0.1c0-1.4,0-2.8,0-4.2c0-0.6,0.2-1.1,0.5-1.6c0.6-0.9,1.3-1.4,2.4-1.4
		c0.5,0,1,0.3,1.1,0.8c0.1,0.3,0.1,0.6,0.1,1c0,1.7,0,3.4,0,5.2v0.4h-1.4c0,0.1,0,0.2,0,0.2h4.3v-0.2h-1.4v-0.4c0-1.5,0-3,0-4.6
		c0-0.2,0-0.5,0-0.7c-0.1-0.7-0.4-1.2-0.9-1.5C69.2,15,68.6,14.9,68,14.9C68,14.9,68,14.9,68,14.9"/>
	<path class="st0" d="M31,22.8c-0.7-0.1-1.2-0.5-1.4-1.1c-0.1-0.3-0.2-0.6-0.3-1c-0.2-1.3-0.2-2.6,0.1-3.8c0-0.1,0-0.2,0.1-0.2
		c0.4-1.2,1.2-1.5,2.3-1.5c1.3,0.1,1.8,0.9,2,2c0.1,0.6,0.1,1.3,0.2,1.9c-0.1,0.7-0.1,1.4-0.3,2.1c0,0.1-0.1,0.3-0.1,0.4
		c-0.3,0.8-0.9,1.2-1.8,1.3c0,0-0.1,0-0.1,0C31.4,22.8,31.2,22.8,31,22.8 M31.4,14.9c-0.9,0.1-1.8,0.4-2.5,1
		c-0.9,0.8-1.5,1.8-1.5,3.2c0,0.1,0,0.4,0.1,0.6c0.3,1.8,2,3.4,4,3.4c1.7,0,3-0.8,3.8-2.3c0.8-1.4,0.7-2.7-0.2-4
		c-0.5-0.8-1.3-1.3-2.2-1.7c-0.4-0.2-0.8-0.3-1.3-0.3C31.5,14.9,31.5,14.9,31.4,14.9"/>
	<path class="st0" d="M37.1,9.9v0.2h1.3v12.5h-1.3v0.2c0.5,0.1,4.2,0.1,4.3,0c0,0,0-0.1,0-0.2H40V9.9c-0.2,0-0.8,0-1.3,0
		C38,9.9,37.3,9.9,37.1,9.9"/>
	<path class="st0" d="M55.7,16c0.6-0.9,1.7-0.9,2.3-0.7c0.2,0.1,0.4,0.3,0.5,0.5c0.1,0.3,0.2,0.6,0.2,0.9c0,0.5,0,0.9,0,1.4h-3.7
		C55.2,17.3,55.3,16.6,55.7,16 M55.7,15.3c-1.6,0.8-2.7,2.6-2.2,4.7c0.3,1.3,1,2.2,2.2,2.7c0.7,0.3,1.5,0.4,2.3,0.3
		c0.5,0,0.9-0.2,1.3-0.5c0.6-0.4,1-1,1.2-1.7c-0.1,0-0.2,0-0.2-0.1c0,0,0,0,0,0c-0.1,0.1-0.1,0.2-0.2,0.4c-0.3,0.8-0.9,1.3-1.7,1.5
		c-0.4,0.1-0.8,0.2-1.2,0.1c-0.8-0.1-1.4-0.5-1.7-1.2c-0.2-0.5-0.3-1-0.4-1.5c-0.1-0.6,0-1.2,0-1.8h5.5c0.1-1.5-0.6-2.6-1.9-3.2
		c-0.5-0.2-0.9-0.3-1.4-0.3C56.8,14.9,56.2,15,55.7,15.3"/>
	<polygon points="86.3,10.9 89.8,10.9 89.8,11.4 86.8,11.4 86.8,13.1 89.5,13.1 89.5,13.6 86.8,13.6 86.8,15.4 89.9,15.4 89.9,15.9 
		86.3,15.9 	"/>
	<path d="M94.9,15.4c-0.4,0.3-0.9,0.5-1.6,0.5c-1.5,0-2.5-1.2-2.5-2.5v0c0-1.4,1-2.6,2.5-2.6c1.5,0,2.5,1.2,2.5,2.5v0
		c0,0.6-0.2,1.2-0.6,1.7l0.7,0.5L95.5,16L94.9,15.4z M94.5,15.1l-0.9-0.8l0.4-0.4l0.9,0.8c0.3-0.3,0.4-0.8,0.4-1.3v0
		c0-1.1-0.8-2-2-2c-1.1,0-1.9,0.9-1.9,2v0c0,1.1,0.8,2,2,2C93.8,15.4,94.2,15.3,94.5,15.1"/>
	<path d="M96.9,13.8v-2.9h0.6v2.8c0,1.1,0.6,1.7,1.5,1.7c0.9,0,1.5-0.6,1.5-1.6v-2.9h0.6v2.8c0,1.4-0.8,2.2-2.1,2.2
		C97.8,16,96.9,15.2,96.9,13.8"/>
	<rect x="102.4" y="10.9" width="0.6" height="5"/>
	<path d="M104.5,10.9h1.9c1.1,0,1.9,0.6,1.9,1.6v0c0,1.1-0.9,1.6-1.9,1.6H105v1.7h-0.6V10.9z M106.2,13.6c0.8,0,1.4-0.4,1.4-1.1v0
		c0-0.7-0.5-1.1-1.3-1.1H105v2.2H106.2z"/>
	<path d="M110.5,10.9h0.5l2.3,5h-0.6l-0.6-1.3h-2.7l-0.6,1.3h-0.6L110.5,10.9z M111.9,14.1l-1.1-2.5l-1.1,2.5H111.9z"/>
	<polygon points="114.3,10.9 114.8,10.9 116.6,13.6 118.5,10.9 119,10.9 119,15.9 118.5,15.9 118.5,11.9 116.7,14.5 116.6,14.5 
		114.8,11.9 114.8,15.9 114.3,15.9 	"/>
	<polygon points="120.4,10.9 124,10.9 124,11.4 121,11.4 121,13.1 123.7,13.1 123.7,13.6 121,13.6 121,15.4 124,15.4 124,15.9 
		120.4,15.9 	"/>
	<polygon points="125.2,10.9 125.7,10.9 128.8,14.9 128.8,10.9 129.4,10.9 129.4,15.9 128.9,15.9 125.7,11.8 125.7,15.9 125.2,15.9 
			"/>
	<polygon points="132.1,11.4 130.4,11.4 130.4,10.9 134.3,10.9 134.3,11.4 132.6,11.4 132.6,15.9 132.1,15.9 	"/>
	<path d="M134.8,13.4L134.8,13.4c0-1.4,1-2.6,2.5-2.6c1.5,0,2.5,1.2,2.5,2.5v0c0,1.4-1,2.6-2.5,2.6C135.8,16,134.8,14.8,134.8,13.4
		 M139.3,13.4L139.3,13.4c0-1.1-0.8-2.1-2-2.1c-1.1,0-1.9,0.9-1.9,2v0c0,1.1,0.8,2,2,2C138.4,15.4,139.3,14.5,139.3,13.4"/>
	<path d="M140.7,15.2l0.3-0.4c0.5,0.5,1,0.7,1.7,0.7c0.7,0,1.1-0.4,1.1-0.8v0c0-0.5-0.2-0.7-1.3-0.9c-1.1-0.2-1.7-0.6-1.7-1.4v0
		c0-0.8,0.7-1.4,1.6-1.4c0.7,0,1.2,0.2,1.7,0.6l-0.3,0.4c-0.5-0.4-0.9-0.5-1.4-0.5c-0.6,0-1.1,0.4-1.1,0.8v0c0,0.5,0.3,0.7,1.3,1
		c1.1,0.2,1.6,0.6,1.6,1.4v0c0,0.8-0.7,1.4-1.7,1.4C141.9,15.9,141.2,15.7,140.7,15.2"/>
	<polygon points="86.3,17.8 86.8,17.8 88.6,20.5 90.4,17.8 91,17.8 91,22.7 90.4,22.7 90.4,18.7 88.6,21.4 88.6,21.4 86.8,18.7 
		86.8,22.7 86.3,22.7 	"/>
	<path d="M92.4,17.8H96v0.5h-3V20h2.7v0.5H93v1.7H96v0.5h-3.6V17.8z M94.7,16.4l0.6,0.3l-0.8,0.7H94L94.7,16.4z"/>
	<path d="M97.1,17.8h1.7c1.6,0,2.6,1.1,2.6,2.5v0c0,1.4-1.1,2.5-2.6,2.5h-1.7V17.8z M98.9,22.2c1.3,0,2.1-0.8,2.1-1.9v0
		c0-1.1-0.8-2-2.1-2h-1.2v3.9H98.9z"/>
	<rect x="102.7" y="17.8" width="0.6" height="5"/>
	<path d="M104.5,20.3L104.5,20.3c0-1.4,1-2.6,2.5-2.6c0.9,0,1.4,0.3,1.9,0.8l-0.4,0.4c-0.4-0.4-0.9-0.7-1.6-0.7
		c-1.1,0-1.9,0.9-1.9,2v0c0,1.1,0.8,2,1.9,2c0.7,0,1.1-0.3,1.6-0.7L109,22c-0.5,0.5-1.1,0.9-2,0.9C105.6,22.8,104.5,21.7,104.5,20.3
		"/>
	<path d="M109.6,20.3L109.6,20.3c0-1.4,1-2.6,2.5-2.6c1.5,0,2.5,1.2,2.5,2.5v0c0,1.4-1,2.6-2.5,2.6
		C110.6,22.8,109.6,21.6,109.6,20.3 M114.1,20.3L114.1,20.3c0-1.1-0.8-2.1-2-2.1c-1.1,0-1.9,0.9-1.9,2v0c0,1.1,0.8,2,2,2
		C113.3,22.3,114.1,21.4,114.1,20.3"/>
	<path d="M115.5,22l0.3-0.4c0.5,0.5,1,0.7,1.7,0.7c0.7,0,1.1-0.4,1.1-0.8v0c0-0.5-0.2-0.7-1.3-0.9c-1.1-0.2-1.7-0.6-1.7-1.4v0
		c0-0.8,0.7-1.4,1.6-1.4c0.7,0,1.2,0.2,1.7,0.6l-0.3,0.4c-0.5-0.4-0.9-0.5-1.4-0.5c-0.6,0-1.1,0.4-1.1,0.8v0c0,0.5,0.3,0.7,1.3,1
		c1.1,0.2,1.6,0.6,1.6,1.4v0c0,0.8-0.7,1.4-1.7,1.4C116.7,22.8,116.1,22.5,115.5,22"/>
</g>
</svg>
